<svg width="303" height="309" viewBox="0 0 303 309" fill="none" xmlns="http://www.w3.org/2000/svg">
<path fill-rule="evenodd" clip-rule="evenodd" d="M177.117 17.1897C176.811 15.761 175.706 14.6385 174.282 14.3097L114.496 0.502911C112.321 0.000698388 110.189 1.48935 109.912 3.70395L101.947 67.2642C101.631 69.7867 103.853 71.8912 106.355 71.438L181.839 57.761C183.932 57.3818 185.296 55.3458 184.85 53.2662L177.117 17.1897ZM0.184845 154.284C-0.5176 152.115 0.852839 149.825 3.09604 149.418L44.6501 141.889C46.5275 141.549 48.3627 142.667 48.922 144.491L63.4288 191.805C66.4147 202.392 69.2228 213.69 71.853 225.583C72.7493 229.636 78.9823 229.639 79.9706 225.608C82.6078 214.851 85.6731 204.874 89.9404 191.805L117.27 106.601C117.77 105.042 119.219 103.985 120.856 103.985H166.704C168.353 103.985 169.809 105.057 170.3 106.631L196.816 191.805C198.449 197.249 202.586 212.351 205.937 225.947C206.923 229.947 213.451 229.999 214.466 226.005C217.642 213.503 221.309 200.185 223.742 191.805L250.258 106.631C250.748 105.057 252.205 103.985 253.854 103.985H299.231C301.82 103.985 303.637 106.536 302.79 108.983L234.561 306.088C234.036 307.605 232.607 308.622 231.002 308.622H189.215C187.574 308.622 186.122 307.56 185.625 305.997L158.291 219.974C153.76 205.247 150.343 192.75 147.907 182.755C146.921 178.711 140.04 178.573 138.936 182.586C136.444 191.642 132.895 203.766 127.637 220.802L100.307 306.007C99.8072 307.565 98.3578 308.622 96.7211 308.622H52.9116C51.2789 308.622 49.8321 307.57 49.329 306.017L0.184845 154.284Z" fill="url(#paint0_linear_796_15389)"/>
<defs>
<linearGradient id="paint0_linear_796_15389" x1="218.268" y1="98.4053" x2="117.716" y2="299.367" gradientUnits="userSpaceOnUse">
<stop stop-color="#E94F2E" stop-opacity="0.1"/>
<stop offset="1" stop-color="#E94F2E" stop-opacity="0"/>
</linearGradient>
</defs>
</svg>
